<mxfile host="app.diagrams.net" modified="2023-09-12T19:45:51.917Z" agent="Mozilla/5.0 (Windows NT 10.0; Win64; x64) AppleWebKit/537.36 (KHTML, like Gecko) Chrome/116.0.0.0 Safari/537.36" etag="aMrVAlvW5zTWQqb_7Zo7" version="21.7.4" type="device">
  <diagram name="Página-1" id="8W3Y6kXNExtDaiMw-GP2">
    <mxGraphModel dx="1332" dy="470" grid="1" gridSize="10" guides="1" tooltips="1" connect="1" arrows="1" fold="1" page="1" pageScale="1" pageWidth="827" pageHeight="1169" math="0" shadow="0">
      <root>
        <mxCell id="0" />
        <mxCell id="1" parent="0" />
        <mxCell id="nCA_nv0fkd8iPuOYcq5--8" value="Selecionar área de empréstimo&amp;nbsp;" style="rounded=1;whiteSpace=wrap;html=1;arcSize=40;fillColor=#fad9d5;strokeColor=#ae4132;" vertex="1" parent="1">
          <mxGeometry x="210" y="120" width="120" height="40" as="geometry" />
        </mxCell>
        <mxCell id="nCA_nv0fkd8iPuOYcq5--9" value="" style="edgeStyle=orthogonalEdgeStyle;html=1;verticalAlign=bottom;endArrow=open;endSize=8;strokeColor=#ff0000;rounded=0;entryX=0.5;entryY=0;entryDx=0;entryDy=0;" edge="1" source="nCA_nv0fkd8iPuOYcq5--8" parent="1" target="nCA_nv0fkd8iPuOYcq5--10">
          <mxGeometry relative="1" as="geometry">
            <mxPoint x="410" y="300" as="targetPoint" />
          </mxGeometry>
        </mxCell>
        <mxCell id="nCA_nv0fkd8iPuOYcq5--35" style="edgeStyle=orthogonalEdgeStyle;rounded=0;orthogonalLoop=1;jettySize=auto;html=1;exitX=1;exitY=0.5;exitDx=0;exitDy=0;" edge="1" parent="1" source="nCA_nv0fkd8iPuOYcq5--10" target="nCA_nv0fkd8iPuOYcq5--14">
          <mxGeometry relative="1" as="geometry" />
        </mxCell>
        <mxCell id="nCA_nv0fkd8iPuOYcq5--10" value="Selecionar leitor e livro&amp;nbsp;" style="rounded=1;whiteSpace=wrap;html=1;arcSize=40;fillColor=#fad9d5;strokeColor=#ae4132;" vertex="1" parent="1">
          <mxGeometry x="210" y="220" width="120" height="40" as="geometry" />
        </mxCell>
        <mxCell id="nCA_nv0fkd8iPuOYcq5--34" style="edgeStyle=orthogonalEdgeStyle;rounded=0;orthogonalLoop=1;jettySize=auto;html=1;entryX=0;entryY=0.75;entryDx=0;entryDy=0;" edge="1" parent="1" source="nCA_nv0fkd8iPuOYcq5--12" target="nCA_nv0fkd8iPuOYcq5--8">
          <mxGeometry relative="1" as="geometry" />
        </mxCell>
        <mxCell id="nCA_nv0fkd8iPuOYcq5--12" value="Registrar Leitor" style="rounded=1;whiteSpace=wrap;html=1;arcSize=40;fillColor=#fad9d5;strokeColor=#ae4132;" vertex="1" parent="1">
          <mxGeometry x="40" y="180" width="120" height="40" as="geometry" />
        </mxCell>
        <mxCell id="nCA_nv0fkd8iPuOYcq5--14" value="" style="rhombus;whiteSpace=wrap;html=1;fillColor=#b1ddf0;strokeColor=#10739e;" vertex="1" parent="1">
          <mxGeometry x="360" y="170" width="90" height="60" as="geometry" />
        </mxCell>
        <mxCell id="nCA_nv0fkd8iPuOYcq5--15" value="yes" style="edgeStyle=orthogonalEdgeStyle;html=1;align=left;verticalAlign=bottom;endArrow=open;endSize=8;strokeColor=#ff0000;rounded=0;entryX=0;entryY=0.5;entryDx=0;entryDy=0;" edge="1" source="nCA_nv0fkd8iPuOYcq5--14" parent="1" target="nCA_nv0fkd8iPuOYcq5--22">
          <mxGeometry x="-1" relative="1" as="geometry">
            <mxPoint x="540" y="190" as="targetPoint" />
            <mxPoint as="offset" />
          </mxGeometry>
        </mxCell>
        <mxCell id="nCA_nv0fkd8iPuOYcq5--16" value="no" style="edgeStyle=orthogonalEdgeStyle;html=1;align=left;verticalAlign=top;endArrow=open;endSize=8;strokeColor=#ff0000;rounded=0;" edge="1" source="nCA_nv0fkd8iPuOYcq5--14" parent="1">
          <mxGeometry x="-1" relative="1" as="geometry">
            <mxPoint x="400" y="270" as="targetPoint" />
            <Array as="points">
              <mxPoint x="405" y="250" />
              <mxPoint x="401" y="250" />
            </Array>
          </mxGeometry>
        </mxCell>
        <mxCell id="nCA_nv0fkd8iPuOYcq5--17" value="leitor existe?" style="edgeLabel;html=1;align=center;verticalAlign=middle;resizable=0;points=[];" vertex="1" connectable="0" parent="nCA_nv0fkd8iPuOYcq5--16">
          <mxGeometry x="-1" y="21" relative="1" as="geometry">
            <mxPoint x="-21" y="-30" as="offset" />
          </mxGeometry>
        </mxCell>
        <mxCell id="nCA_nv0fkd8iPuOYcq5--37" style="edgeStyle=orthogonalEdgeStyle;rounded=0;orthogonalLoop=1;jettySize=auto;html=1;" edge="1" parent="1" source="nCA_nv0fkd8iPuOYcq5--18">
          <mxGeometry relative="1" as="geometry">
            <mxPoint x="70" y="230" as="targetPoint" />
          </mxGeometry>
        </mxCell>
        <mxCell id="nCA_nv0fkd8iPuOYcq5--18" value="Registrar leitor?" style="rhombus;whiteSpace=wrap;html=1;fillColor=#b1ddf0;strokeColor=#10739e;" vertex="1" parent="1">
          <mxGeometry x="360" y="270" width="100" height="60" as="geometry" />
        </mxCell>
        <mxCell id="nCA_nv0fkd8iPuOYcq5--19" value="no" style="edgeStyle=orthogonalEdgeStyle;html=1;align=left;verticalAlign=bottom;endArrow=open;endSize=8;strokeColor=#ff0000;rounded=0;entryX=0;entryY=0.5;entryDx=0;entryDy=0;exitX=0.71;exitY=0.9;exitDx=0;exitDy=0;exitPerimeter=0;" edge="1" source="nCA_nv0fkd8iPuOYcq5--18" parent="1" target="nCA_nv0fkd8iPuOYcq5--31">
          <mxGeometry x="-0.8511" y="10" relative="1" as="geometry">
            <mxPoint x="700" y="544" as="targetPoint" />
            <Array as="points">
              <mxPoint x="431" y="330" />
              <mxPoint x="410" y="330" />
              <mxPoint x="410" y="500" />
            </Array>
            <mxPoint as="offset" />
          </mxGeometry>
        </mxCell>
        <mxCell id="nCA_nv0fkd8iPuOYcq5--36" style="edgeStyle=orthogonalEdgeStyle;rounded=0;orthogonalLoop=1;jettySize=auto;html=1;entryX=0.908;entryY=0;entryDx=0;entryDy=0;entryPerimeter=0;" edge="1" parent="1" source="nCA_nv0fkd8iPuOYcq5--22" target="nCA_nv0fkd8iPuOYcq5--10">
          <mxGeometry relative="1" as="geometry">
            <mxPoint x="610" y="125" as="sourcePoint" />
            <mxPoint x="320" y="120" as="targetPoint" />
            <Array as="points">
              <mxPoint x="640" y="100" />
              <mxPoint x="380" y="100" />
              <mxPoint x="380" y="120" />
              <mxPoint x="340" y="120" />
              <mxPoint x="340" y="220" />
            </Array>
          </mxGeometry>
        </mxCell>
        <mxCell id="nCA_nv0fkd8iPuOYcq5--39" style="edgeStyle=orthogonalEdgeStyle;rounded=0;orthogonalLoop=1;jettySize=auto;html=1;entryX=0.25;entryY=0;entryDx=0;entryDy=0;" edge="1" parent="1" source="nCA_nv0fkd8iPuOYcq5--22" target="nCA_nv0fkd8iPuOYcq5--29">
          <mxGeometry relative="1" as="geometry" />
        </mxCell>
        <mxCell id="nCA_nv0fkd8iPuOYcq5--22" value="livro existe?" style="rhombus;whiteSpace=wrap;html=1;fillColor=#b1ddf0;strokeColor=#10739e;" vertex="1" parent="1">
          <mxGeometry x="550" y="210" width="100" height="60" as="geometry" />
        </mxCell>
        <mxCell id="nCA_nv0fkd8iPuOYcq5--25" value="no" style="text;html=1;align=center;verticalAlign=middle;resizable=0;points=[];autosize=1;strokeColor=none;fillColor=none;" vertex="1" parent="1">
          <mxGeometry x="590" y="168" width="40" height="30" as="geometry" />
        </mxCell>
        <mxCell id="nCA_nv0fkd8iPuOYcq5--27" value="yes" style="text;html=1;align=center;verticalAlign=middle;resizable=0;points=[];autosize=1;strokeColor=none;fillColor=none;" vertex="1" parent="1">
          <mxGeometry x="650" y="240" width="40" height="30" as="geometry" />
        </mxCell>
        <mxCell id="nCA_nv0fkd8iPuOYcq5--46" style="edgeStyle=orthogonalEdgeStyle;rounded=0;orthogonalLoop=1;jettySize=auto;html=1;" edge="1" parent="1" source="nCA_nv0fkd8iPuOYcq5--29">
          <mxGeometry relative="1" as="geometry">
            <mxPoint x="750" y="350" as="targetPoint" />
          </mxGeometry>
        </mxCell>
        <mxCell id="nCA_nv0fkd8iPuOYcq5--29" value="Registrar empréstimo" style="rounded=1;whiteSpace=wrap;html=1;arcSize=40;fillColor=#fad9d5;strokeColor=#ae4132;" vertex="1" parent="1">
          <mxGeometry x="570" y="360" width="120" height="50" as="geometry" />
        </mxCell>
        <mxCell id="nCA_nv0fkd8iPuOYcq5--31" value="" style="ellipse;html=1;shape=endState;fillColor=#d80073;strokeColor=#A50040;fontColor=#ffffff;" vertex="1" parent="1">
          <mxGeometry x="710" y="480" width="40" height="40" as="geometry" />
        </mxCell>
        <mxCell id="nCA_nv0fkd8iPuOYcq5--33" style="edgeStyle=orthogonalEdgeStyle;rounded=0;orthogonalLoop=1;jettySize=auto;html=1;entryX=0.558;entryY=-0.125;entryDx=0;entryDy=0;entryPerimeter=0;" edge="1" parent="1" source="nCA_nv0fkd8iPuOYcq5--32" target="nCA_nv0fkd8iPuOYcq5--8">
          <mxGeometry relative="1" as="geometry" />
        </mxCell>
        <mxCell id="nCA_nv0fkd8iPuOYcq5--32" value="" style="ellipse;html=1;shape=endState;fillColor=#d80073;fontColor=#ffffff;strokeColor=#A50040;" vertex="1" parent="1">
          <mxGeometry x="150" y="40" width="40" height="40" as="geometry" />
        </mxCell>
        <mxCell id="nCA_nv0fkd8iPuOYcq5--41" value="yes" style="text;html=1;align=center;verticalAlign=middle;resizable=0;points=[];autosize=1;strokeColor=none;fillColor=none;" vertex="1" parent="1">
          <mxGeometry x="340" y="268" width="40" height="30" as="geometry" />
        </mxCell>
        <mxCell id="nCA_nv0fkd8iPuOYcq5--47" style="edgeStyle=orthogonalEdgeStyle;rounded=0;orthogonalLoop=1;jettySize=auto;html=1;entryX=1;entryY=0.5;entryDx=0;entryDy=0;" edge="1" parent="1" source="nCA_nv0fkd8iPuOYcq5--44" target="nCA_nv0fkd8iPuOYcq5--31">
          <mxGeometry relative="1" as="geometry">
            <mxPoint x="780" y="520" as="targetPoint" />
          </mxGeometry>
        </mxCell>
        <mxCell id="nCA_nv0fkd8iPuOYcq5--44" value="Gravar histórico de empréstimo" style="rounded=1;whiteSpace=wrap;html=1;arcSize=40;fillColor=#fad9d5;strokeColor=#ae4132;" vertex="1" parent="1">
          <mxGeometry x="707" y="310" width="120" height="40" as="geometry" />
        </mxCell>
      </root>
    </mxGraphModel>
  </diagram>
</mxfile>
